<svg xmlns="http://www.w3.org/2000/svg" xmlns:xlink="http://www.w3.org/1999/xlink" width="900" zoomAndPan="magnify" viewBox="0 0 675 205.499994" height="274" preserveAspectRatio="xMidYMid meet" version="1.0"><defs><g/><clipPath id="b410c44f5b"><path d="M 90 4.488281 L 176 4.488281 L 176 72 L 90 72 Z M 90 4.488281 " clip-rule="nonzero"/></clipPath><clipPath id="f96ad32397"><path d="M 5.722656 11 L 118 11 L 118 172 L 5.722656 172 Z M 5.722656 11 " clip-rule="nonzero"/></clipPath><clipPath id="5e830be8c8"><path d="M 19 10 L 348.992188 10 L 348.992188 195.789062 L 19 195.789062 Z M 19 10 " clip-rule="nonzero"/></clipPath></defs><g clip-path="url(#b410c44f5b)"><path fill="#e52323" d="M 90.117188 29.765625 C 91.957031 30.683594 93.566406 31.988281 94.792969 33.597656 L 106.753906 21.945312 C 107.980469 22.558594 109.28125 22.867188 110.738281 22.867188 C 111.199219 22.867188 111.734375 22.789062 112.195312 22.789062 L 122.621094 37.277344 C 120.933594 38.964844 119.9375 41.265625 119.9375 43.792969 C 119.9375 48.851562 124 52.917969 129.0625 52.917969 C 131.359375 52.917969 133.507812 52.074219 135.117188 50.617188 C 143.242188 55.523438 150.066406 62.269531 155.203125 70.242188 C 156.503906 72.3125 159.648438 71.929688 160.414062 69.628906 L 160.414062 69.550781 C 160.722656 68.707031 160.570312 67.710938 160.109375 66.945312 C 154.511719 58.207031 146.921875 50.847656 138.03125 45.480469 C 138.03125 45.328125 138.105469 45.171875 138.105469 44.945312 L 153.898438 43.332031 C 153.4375 42.03125 153.210938 40.652344 153.210938 39.195312 C 153.210938 38.582031 153.285156 37.890625 153.363281 37.277344 L 136.804688 38.964844 C 135.195312 36.359375 132.28125 34.59375 128.984375 34.59375 C 128.679688 34.59375 128.371094 34.59375 128.140625 34.671875 L 117.484375 19.875 C 117.945312 19.339844 118.40625 18.804688 118.710938 18.191406 C 132.972656 20.71875 146.386719 26.851562 157.730469 36.128906 C 157.347656 37.125 157.195312 38.199219 157.195312 39.269531 C 157.195312 44.332031 161.257812 48.394531 166.316406 48.394531 C 171.378906 48.394531 175.441406 44.332031 175.441406 39.269531 C 175.441406 34.210938 171.378906 30.148438 166.316406 30.148438 C 164.554688 30.148438 162.867188 30.683594 161.488281 31.527344 C 149.683594 21.945312 135.425781 15.199219 119.785156 12.363281 C 119.09375 7.992188 115.339844 4.699219 110.738281 4.699219 C 105.679688 4.699219 101.617188 8.761719 101.617188 13.820312 C 101.617188 15.199219 101.921875 16.578125 102.535156 17.730469 Z M 129.0625 38.582031 C 131.898438 38.582031 134.199219 40.878906 134.199219 43.71875 C 134.199219 46.554688 131.898438 48.851562 129.0625 48.851562 C 126.226562 48.851562 123.925781 46.554688 123.925781 43.71875 C 123.925781 40.878906 126.226562 38.582031 129.0625 38.582031 Z M 110.816406 8.605469 C 113.652344 8.605469 115.953125 10.90625 115.953125 13.742188 C 115.953125 16.578125 113.652344 18.878906 110.816406 18.878906 C 107.980469 18.878906 105.679688 16.578125 105.679688 13.742188 C 105.601562 10.90625 107.980469 8.605469 110.816406 8.605469 Z M 110.816406 8.605469 " fill-opacity="1" fill-rule="nonzero"/></g><g clip-path="url(#f96ad32397)"><path fill="#e52323" d="M 11.234375 98.914062 C 11.160156 100.140625 11.160156 101.441406 11.160156 102.667969 C 11.003906 129.804688 22.734375 154.335938 41.4375 171.355469 C 42.28125 169.515625 43.507812 167.90625 45.042969 166.679688 C 44.964844 166.601562 44.886719 166.527344 44.8125 166.449219 C 26.261719 149.203125 16.292969 125.285156 17.214844 99.910156 C 17.214844 99.679688 17.214844 99.449219 17.214844 99.21875 C 20.972656 98.070312 23.730469 94.621094 23.730469 90.480469 C 23.730469 89.789062 23.652344 89.101562 23.5 88.488281 L 40.441406 77.523438 C 42.128906 79.363281 44.503906 80.515625 47.1875 80.515625 C 52.246094 80.515625 56.3125 76.449219 56.3125 71.390625 C 56.3125 69.398438 55.699219 67.558594 54.625 66.101562 C 60.605469 58.207031 68.5 51.84375 77.546875 47.625 C 79.230469 49.542969 81.683594 50.769531 84.445312 50.769531 C 89.121094 50.769531 93.03125 47.242188 93.492188 42.644531 C 96.789062 42.105469 100.238281 41.800781 103.6875 41.878906 C 107.902344 41.878906 111.964844 42.335938 115.875 43.179688 C 115.953125 41.109375 116.566406 39.195312 117.5625 37.429688 C 112.65625 36.359375 107.597656 35.820312 102.382812 35.898438 C 98.933594 35.972656 95.484375 36.28125 92.109375 36.816406 C 90.5 34.210938 87.664062 32.523438 84.367188 32.523438 C 81.761719 32.523438 79.386719 33.597656 77.777344 35.359375 L 59.835938 32.753906 C 59.835938 33.136719 59.914062 33.519531 59.914062 33.90625 C 59.914062 35.589844 59.605469 37.199219 58.992188 38.734375 L 75.324219 41.109375 C 75.324219 41.265625 75.324219 41.492188 75.324219 41.648438 C 75.324219 41.800781 75.324219 41.953125 75.324219 42.03125 C 65.203125 46.707031 56.464844 53.835938 49.792969 62.574219 C 49.566406 62.5 49.335938 62.421875 49.105469 62.421875 L 49.105469 42.71875 C 53.015625 41.722656 55.925781 38.121094 55.925781 33.90625 C 55.925781 32.984375 55.773438 32.140625 55.542969 31.296875 C 68.117188 22.867188 82.757812 17.960938 98.089844 17.039062 C 97.859375 16.042969 97.707031 14.96875 97.707031 13.820312 C 97.707031 12.898438 97.785156 11.980469 98.015625 11.058594 C 81.300781 12.058594 65.585938 17.652344 52.324219 26.621094 C 50.792969 25.472656 48.875 24.78125 46.804688 24.78125 C 41.746094 24.78125 37.683594 28.84375 37.683594 33.90625 C 37.683594 35.359375 37.988281 36.664062 38.601562 37.890625 C 26.71875 49.695312 17.90625 64.722656 13.765625 81.355469 C 9.089844 81.742188 5.410156 85.648438 5.410156 90.480469 C 5.484375 94.234375 7.863281 97.53125 11.234375 98.914062 Z M 47.1875 66.179688 C 50.023438 66.179688 52.324219 68.476562 52.324219 71.316406 C 52.324219 74.152344 50.023438 76.449219 47.1875 76.449219 C 44.351562 76.449219 42.050781 74.152344 42.050781 71.316406 C 42.050781 68.476562 44.351562 66.179688 47.1875 66.179688 Z M 42.511719 41.878906 C 42.742188 41.953125 42.894531 42.105469 43.125 42.183594 L 43.125 63.1875 C 40.136719 64.722656 38.066406 67.789062 38.066406 71.316406 C 38.066406 71.46875 38.066406 71.621094 38.066406 71.773438 L 20.28125 83.273438 C 20.050781 83.042969 19.746094 82.890625 19.515625 82.738281 C 23.269531 67.328125 31.167969 53.144531 42.511719 41.878906 Z M 14.609375 85.191406 C 17.445312 85.191406 19.746094 87.488281 19.746094 90.328125 C 19.746094 93.164062 17.445312 95.460938 14.609375 95.460938 C 11.773438 95.460938 9.472656 93.164062 9.472656 90.328125 C 9.472656 87.488281 11.695312 85.191406 14.609375 85.191406 Z M 14.609375 85.191406 " fill-opacity="1" fill-rule="nonzero"/></g><g clip-path="url(#5e830be8c8)"><path fill="#38b6ff" d="M 37.070312 127.046875 C 36.839844 127.8125 36.761719 128.578125 36.761719 129.421875 C 36.761719 133.714844 39.675781 137.320312 43.660156 138.316406 L 47.648438 169.59375 C 45.5 171.277344 44.199219 173.886719 44.199219 176.722656 C 44.199219 181.78125 48.261719 185.84375 53.320312 185.84375 C 55.46875 185.84375 57.382812 185.078125 58.917969 183.929688 C 72.101562 191.210938 87.28125 195.351562 103.378906 195.351562 C 113.5 195.351562 123.234375 193.742188 132.28125 190.75 C 133.96875 192.515625 136.265625 193.585938 138.875 193.585938 C 143.933594 193.585938 147.996094 189.523438 147.996094 184.464844 C 147.996094 181.933594 147 179.710938 145.390625 178.023438 L 155.050781 153.722656 C 157.960938 152.574219 160.109375 149.890625 160.644531 146.75 L 179.195312 137.703125 C 177.894531 136.167969 177.050781 134.328125 176.589844 132.335938 L 159.496094 140.691406 C 159.417969 140.617188 159.417969 140.539062 159.34375 140.460938 C 165.015625 131.953125 168.847656 122.0625 170.152344 111.40625 C 170.765625 106.65625 174.828125 103.128906 179.578125 103.128906 C 185.328125 103.128906 189.699219 108.113281 189.007812 113.785156 C 188.703125 116.007812 188.394531 118.230469 187.9375 120.378906 C 183.488281 120.992188 180.117188 124.824219 180.117188 129.421875 C 180.117188 132.105469 181.265625 134.484375 183.105469 136.167969 C 178.8125 146.519531 172.527344 155.945312 164.402344 164.148438 C 159.726562 168.824219 154.589844 172.890625 149.144531 176.339844 C 150.371094 177.871094 151.292969 179.710938 151.675781 181.703125 C 168.082031 171.585938 181.035156 156.484375 188.550781 138.546875 C 188.777344 138.546875 189.007812 138.546875 189.238281 138.546875 C 194.296875 138.546875 198.363281 134.484375 198.363281 129.421875 C 198.363281 126.050781 196.523438 123.058594 193.761719 121.449219 C 194.910156 115.699219 195.523438 109.796875 195.601562 103.742188 C 195.832031 69.859375 222.738281 41.953125 256.625 41.800781 C 290.738281 41.648438 318.488281 69.476562 318.179688 103.664062 C 317.875 137.320312 290.125 164.609375 256.546875 164.378906 C 241.0625 164.304688 226.957031 158.476562 216.222656 148.894531 C 208.941406 142.378906 197.441406 144.21875 192.6875 152.804688 C 192.613281 152.878906 192.535156 153.035156 192.535156 153.109375 C 189.007812 159.398438 190.390625 167.292969 195.753906 172.121094 C 212.238281 186.765625 234.007812 195.582031 257.851562 195.351562 C 308.675781 194.890625 349.304688 153.722656 349.226562 102.898438 C 349.152344 51.996094 307.832031 10.832031 256.929688 10.832031 C 206.179688 10.832031 165.015625 51.765625 164.632812 102.4375 C 164.554688 115.011719 160.796875 126.816406 154.359375 136.628906 C 153.515625 136.324219 152.519531 136.167969 151.597656 136.167969 C 146.539062 136.167969 142.476562 140.230469 142.476562 145.292969 C 142.476562 149.277344 145.007812 152.652344 148.53125 153.878906 L 140.023438 175.34375 C 139.640625 175.265625 139.332031 175.265625 138.949219 175.265625 C 133.890625 175.265625 129.828125 179.328125 129.828125 184.386719 C 129.828125 184.695312 129.828125 185 129.90625 185.230469 C 121.546875 187.914062 112.808594 189.371094 103.917969 189.371094 C 89.8125 189.449219 75.9375 186.074219 63.59375 179.636719 L 86.054688 174.574219 C 84.980469 172.890625 84.292969 170.972656 84.0625 168.902344 L 61.984375 173.886719 C 60.832031 170.28125 57.460938 167.675781 53.472656 167.597656 L 50.484375 144.601562 C 59.761719 156.40625 72.945312 164.992188 87.972656 168.597656 C 88.585938 173.117188 92.417969 176.644531 97.09375 176.644531 C 98.628906 176.644531 100.007812 176.261719 101.234375 175.648438 L 125.839844 183.699219 C 125.996094 181.628906 126.609375 179.636719 127.527344 177.949219 L 105.601562 170.820312 C 105.679688 170.664062 105.679688 170.511719 105.757812 170.359375 C 120.320312 169.824219 133.738281 164.6875 144.46875 156.332031 C 142.707031 155.179688 141.25 153.648438 140.253906 151.882812 C 130.59375 159.320312 118.636719 163.917969 105.601562 164.378906 C 104.300781 160.851562 101.003906 158.398438 97.015625 158.398438 C 93.722656 158.398438 90.808594 160.164062 89.199219 162.769531 C 73.558594 159.089844 60.21875 149.429688 51.789062 136.324219 C 53.703125 134.636719 54.929688 132.183594 54.929688 129.421875 C 54.929688 124.363281 50.867188 120.300781 45.808594 120.300781 C 45.347656 120.300781 44.964844 120.300781 44.503906 120.378906 C 42.820312 114.703125 41.976562 108.726562 42.050781 102.515625 C 42.128906 96.152344 43.125 90.019531 45.042969 84.195312 C 43.046875 83.886719 41.132812 83.042969 39.523438 81.894531 C 37.375 88.332031 36.148438 95.308594 36.074219 102.4375 C 35.996094 107.652344 36.609375 112.789062 37.683594 117.695312 L 24.265625 99.140625 C 22.886719 100.675781 21.199219 101.824219 19.359375 102.59375 Z M 146.464844 145.292969 C 146.464844 142.457031 148.761719 140.15625 151.597656 140.15625 C 154.4375 140.15625 156.734375 142.457031 156.734375 145.292969 C 156.734375 148.128906 154.4375 150.429688 151.597656 150.429688 C 148.761719 150.429688 146.464844 148.128906 146.464844 145.292969 Z M 138.949219 179.25 C 141.785156 179.25 144.085938 181.550781 144.085938 184.386719 C 144.085938 187.222656 141.785156 189.523438 138.949219 189.523438 C 136.113281 189.523438 133.8125 187.222656 133.8125 184.386719 C 133.8125 181.550781 136.039062 179.25 138.949219 179.25 Z M 45.886719 124.285156 C 48.722656 124.285156 51.019531 126.585938 51.019531 129.421875 C 51.019531 132.257812 48.722656 134.558594 45.886719 134.558594 C 43.046875 134.558594 40.75 132.257812 40.75 129.421875 C 40.671875 126.585938 42.972656 124.285156 45.886719 124.285156 Z M 45.886719 124.285156 " fill-opacity="1" fill-rule="nonzero"/></g><g fill="#ff00ff" fill-opacity="1"><g transform="translate(378.881153, 57.621186)"><g><path d="M 20.707031 -30.160156 C 17.15625 -30.160156 14.042969 -28.851562 11.800781 -26.71875 L 11.800781 -40.105469 L 3.824219 -40.105469 L 3.824219 0 L 11.800781 0 L 11.800781 -15.464844 C 11.800781 -20.269531 14.425781 -23.167969 18.414062 -23.167969 C 21.964844 -23.167969 23.550781 -20.980469 23.550781 -16.554688 L 23.550781 0 L 31.527344 0 L 31.527344 -17.921875 C 31.527344 -25.40625 27.375 -30.160156 20.707031 -30.160156 Z M 20.707031 -30.160156 "/></g></g></g><g fill="#ff00ff" fill-opacity="1"><g transform="translate(413.903888, 57.621186)"><g><path d="M 20.707031 -30.160156 C 17.15625 -30.160156 14.042969 -28.851562 11.800781 -26.71875 L 11.800781 -40.105469 L 3.824219 -40.105469 L 3.824219 0 L 11.800781 0 L 11.800781 -15.464844 C 11.800781 -20.269531 14.425781 -23.167969 18.414062 -23.167969 C 21.964844 -23.167969 23.550781 -20.980469 23.550781 -16.554688 L 23.550781 0 L 31.527344 0 L 31.527344 -17.921875 C 31.527344 -25.40625 27.375 -30.160156 20.707031 -30.160156 Z M 20.707031 -30.160156 "/></g></g></g><g fill="#ff00ff" fill-opacity="1"><g transform="translate(448.926624, 57.621186)"><g><path d="M 21.855469 -29.066406 L 14.261719 -29.066406 L 14.261719 -31.582031 C 14.261719 -33.65625 15.355469 -34.75 17.484375 -34.75 L 21.800781 -34.75 L 21.800781 -41.035156 L 15.898438 -41.035156 C 9.671875 -41.035156 6.503906 -37.429688 6.503906 -31.746094 L 6.503906 -29.066406 L 1.367188 -29.066406 L 1.367188 -22.511719 L 6.449219 -22.511719 L 6.449219 0 L 14.425781 0 L 14.425781 -22.511719 L 21.855469 -22.511719 Z M 21.855469 -29.066406 "/></g></g></g><g fill="#00ffff" fill-opacity="1"><g transform="translate(376.83202, 57.621186)"><g><path d="M 20.707031 -30.160156 C 17.15625 -30.160156 14.042969 -28.851562 11.800781 -26.71875 L 11.800781 -40.105469 L 3.824219 -40.105469 L 3.824219 0 L 11.800781 0 L 11.800781 -15.464844 C 11.800781 -20.269531 14.425781 -23.167969 18.414062 -23.167969 C 21.964844 -23.167969 23.550781 -20.980469 23.550781 -16.554688 L 23.550781 0 L 31.527344 0 L 31.527344 -17.921875 C 31.527344 -25.40625 27.375 -30.160156 20.707031 -30.160156 Z M 20.707031 -30.160156 "/></g></g></g><g fill="#00ffff" fill-opacity="1"><g transform="translate(411.854755, 57.621186)"><g><path d="M 20.707031 -30.160156 C 17.15625 -30.160156 14.042969 -28.851562 11.800781 -26.71875 L 11.800781 -40.105469 L 3.824219 -40.105469 L 3.824219 0 L 11.800781 0 L 11.800781 -15.464844 C 11.800781 -20.269531 14.425781 -23.167969 18.414062 -23.167969 C 21.964844 -23.167969 23.550781 -20.980469 23.550781 -16.554688 L 23.550781 0 L 31.527344 0 L 31.527344 -17.921875 C 31.527344 -25.40625 27.375 -30.160156 20.707031 -30.160156 Z M 20.707031 -30.160156 "/></g></g></g><g fill="#00ffff" fill-opacity="1"><g transform="translate(446.87749, 57.621186)"><g><path d="M 21.855469 -29.066406 L 14.261719 -29.066406 L 14.261719 -31.582031 C 14.261719 -33.65625 15.355469 -34.75 17.484375 -34.75 L 21.800781 -34.75 L 21.800781 -41.035156 L 15.898438 -41.035156 C 9.671875 -41.035156 6.503906 -37.429688 6.503906 -31.746094 L 6.503906 -29.066406 L 1.367188 -29.066406 L 1.367188 -22.511719 L 6.449219 -22.511719 L 6.449219 0 L 14.425781 0 L 14.425781 -22.511719 L 21.855469 -22.511719 Z M 21.855469 -29.066406 "/></g></g></g><g fill="#38b6ff" fill-opacity="1"><g transform="translate(377.856588, 57.621186)"><g><path d="M 20.707031 -30.160156 C 17.15625 -30.160156 14.042969 -28.851562 11.800781 -26.71875 L 11.800781 -40.105469 L 3.824219 -40.105469 L 3.824219 0 L 11.800781 0 L 11.800781 -15.464844 C 11.800781 -20.269531 14.425781 -23.167969 18.414062 -23.167969 C 21.964844 -23.167969 23.550781 -20.980469 23.550781 -16.554688 L 23.550781 0 L 31.527344 0 L 31.527344 -17.921875 C 31.527344 -25.40625 27.375 -30.160156 20.707031 -30.160156 Z M 20.707031 -30.160156 "/></g></g></g><g fill="#38b6ff" fill-opacity="1"><g transform="translate(412.879323, 57.621186)"><g><path d="M 20.707031 -30.160156 C 17.15625 -30.160156 14.042969 -28.851562 11.800781 -26.71875 L 11.800781 -40.105469 L 3.824219 -40.105469 L 3.824219 0 L 11.800781 0 L 11.800781 -15.464844 C 11.800781 -20.269531 14.425781 -23.167969 18.414062 -23.167969 C 21.964844 -23.167969 23.550781 -20.980469 23.550781 -16.554688 L 23.550781 0 L 31.527344 0 L 31.527344 -17.921875 C 31.527344 -25.40625 27.375 -30.160156 20.707031 -30.160156 Z M 20.707031 -30.160156 "/></g></g></g><g fill="#38b6ff" fill-opacity="1"><g transform="translate(447.902058, 57.621186)"><g><path d="M 21.855469 -29.066406 L 14.261719 -29.066406 L 14.261719 -31.582031 C 14.261719 -33.65625 15.355469 -34.75 17.484375 -34.75 L 21.800781 -34.75 L 21.800781 -41.035156 L 15.898438 -41.035156 C 9.671875 -41.035156 6.503906 -37.429688 6.503906 -31.746094 L 6.503906 -29.066406 L 1.367188 -29.066406 L 1.367188 -22.511719 L 6.449219 -22.511719 L 6.449219 0 L 14.425781 0 L 14.425781 -22.511719 L 21.855469 -22.511719 Z M 21.855469 -29.066406 "/></g></g></g><g fill="#ff00ff" fill-opacity="1"><g transform="translate(378.881153, 113.971859)"><g><path d="M 18.25 -7.101562 C 15.300781 -7.101562 13.660156 -8.742188 13.660156 -11.582031 L 13.660156 -23.058594 L 21.691406 -23.058594 L 21.691406 -29.503906 L 13.550781 -29.503906 L 13.550781 -37.15625 L 12.019531 -37.15625 L 0.382812 -24.804688 L 0.382812 -23.058594 L 5.683594 -23.058594 L 5.683594 -10.492188 C 5.683594 -3.988281 9.671875 0 16.171875 0 L 21.855469 0 L 21.855469 -7.101562 Z M 18.25 -7.101562 "/></g></g></g><g fill="#ff00ff" fill-opacity="1"><g transform="translate(402.375348, 113.971859)"><g><path d="M 32.457031 -14.808594 C 32.457031 -23.332031 26.226562 -30.324219 17.15625 -30.324219 C 8.414062 -30.324219 1.859375 -23.605469 1.859375 -14.753906 C 1.859375 -5.902344 8.46875 0.875 17.15625 0.875 C 24.042969 0.875 29.667969 -3.222656 31.800781 -9.671875 L 23.441406 -9.671875 C 22.238281 -7.539062 19.945312 -6.230469 17.15625 -6.230469 C 13.277344 -6.230469 10.65625 -8.46875 9.945312 -12.511719 L 32.292969 -12.511719 C 32.402344 -13.277344 32.457031 -14.042969 32.457031 -14.808594 Z M 17.15625 -23.496094 C 20.761719 -23.496094 23.332031 -21.527344 24.480469 -17.921875 L 10.164062 -17.921875 C 11.09375 -21.417969 13.605469 -23.496094 17.15625 -23.496094 Z M 17.15625 -23.496094 "/></g></g></g><g fill="#ff00ff" fill-opacity="1"><g transform="translate(436.68779, 113.971859)"><g><path d="M 17.539062 0.875 C 25.242188 0.875 31.308594 -4.152344 32.675781 -11.582031 L 24.640625 -11.582031 C 23.277344 -8.414062 20.761719 -6.667969 17.539062 -6.667969 C 13.277344 -6.667969 9.945312 -10.21875 9.945312 -14.753906 C 9.945312 -19.34375 13.222656 -22.839844 17.539062 -22.839844 C 20.707031 -22.839844 23.386719 -21.089844 24.640625 -18.195312 L 32.566406 -18.195312 C 31.144531 -25.460938 25.242188 -30.324219 17.59375 -30.324219 C 8.632812 -30.324219 1.859375 -23.660156 1.859375 -14.808594 C 1.859375 -5.957031 8.632812 0.875 17.539062 0.875 Z M 17.539062 0.875 "/></g></g></g><g fill="#ff00ff" fill-opacity="1"><g transform="translate(470.836315, 113.971859)"><g><path d="M 20.707031 -30.160156 C 17.15625 -30.160156 14.042969 -28.851562 11.800781 -26.71875 L 11.800781 -40.105469 L 3.824219 -40.105469 L 3.824219 0 L 11.800781 0 L 11.800781 -15.464844 C 11.800781 -20.269531 14.425781 -23.167969 18.414062 -23.167969 C 21.964844 -23.167969 23.550781 -20.980469 23.550781 -16.554688 L 23.550781 0 L 31.527344 0 L 31.527344 -17.921875 C 31.527344 -25.40625 27.375 -30.160156 20.707031 -30.160156 Z M 20.707031 -30.160156 "/></g></g></g><g fill="#ff00ff" fill-opacity="1"><g transform="translate(505.85905, 113.971859)"><g><path d="M 1.09375 4.480469 L 9.507812 4.480469 L 26.117188 -41.582031 L 17.757812 -41.582031 Z M 1.09375 4.480469 "/></g></g></g><g fill="#ff00ff" fill-opacity="1"><g transform="translate(533.232513, 113.971859)"><g><path d="M 17.539062 0.875 C 25.242188 0.875 31.308594 -4.152344 32.675781 -11.582031 L 24.640625 -11.582031 C 23.277344 -8.414062 20.761719 -6.667969 17.539062 -6.667969 C 13.277344 -6.667969 9.945312 -10.21875 9.945312 -14.753906 C 9.945312 -19.34375 13.222656 -22.839844 17.539062 -22.839844 C 20.707031 -22.839844 23.386719 -21.089844 24.640625 -18.195312 L 32.566406 -18.195312 C 31.144531 -25.460938 25.242188 -30.324219 17.59375 -30.324219 C 8.632812 -30.324219 1.859375 -23.660156 1.859375 -14.808594 C 1.859375 -5.957031 8.632812 0.875 17.539062 0.875 Z M 17.539062 0.875 "/></g></g></g><g fill="#ff00ff" fill-opacity="1"><g transform="translate(567.381038, 113.971859)"><g><path d="M 17.8125 0.875 C 26.9375 0.875 33.765625 -5.847656 33.765625 -14.753906 C 33.765625 -23.660156 26.9375 -30.324219 17.8125 -30.324219 C 8.6875 -30.324219 1.859375 -23.660156 1.859375 -14.753906 C 1.859375 -5.847656 8.6875 0.875 17.8125 0.875 Z M 17.8125 -6.667969 C 13.222656 -6.667969 9.945312 -9.945312 9.945312 -14.753906 C 9.945312 -19.507812 13.222656 -22.839844 17.8125 -22.839844 C 22.402344 -22.839844 25.679688 -19.507812 25.679688 -14.753906 C 25.679688 -9.945312 22.402344 -6.667969 17.8125 -6.667969 Z M 17.8125 -6.667969 "/></g></g></g><g fill="#ff00ff" fill-opacity="1"><g transform="translate(603.059427, 113.971859)"><g><path d="M 25.460938 -40.105469 L 25.460938 -27.867188 C 23.167969 -29.449219 20.433594 -30.324219 17.375 -30.324219 C 8.414062 -30.324219 1.859375 -23.660156 1.859375 -14.699219 C 1.859375 -5.792969 8.414062 0.929688 17.375 0.929688 C 20.980469 0.929688 24.152344 -0.328125 26.609375 -2.402344 L 27.539062 0.0546875 L 33.441406 0.0546875 L 33.441406 -40.105469 Z M 18.03125 -6.613281 C 13.386719 -6.613281 10 -10.109375 10 -14.699219 C 10 -19.34375 13.386719 -22.785156 18.03125 -22.785156 C 22.675781 -22.785156 26.0625 -19.34375 26.0625 -14.699219 C 26.0625 -10.109375 22.675781 -6.613281 18.03125 -6.613281 Z M 18.03125 -6.613281 "/></g></g></g><g fill="#ff00ff" fill-opacity="1"><g transform="translate(640.376943, 113.971859)"><g><path d="M 32.457031 -14.808594 C 32.457031 -23.332031 26.226562 -30.324219 17.15625 -30.324219 C 8.414062 -30.324219 1.859375 -23.605469 1.859375 -14.753906 C 1.859375 -5.902344 8.46875 0.875 17.15625 0.875 C 24.042969 0.875 29.667969 -3.222656 31.800781 -9.671875 L 23.441406 -9.671875 C 22.238281 -7.539062 19.945312 -6.230469 17.15625 -6.230469 C 13.277344 -6.230469 10.65625 -8.46875 9.945312 -12.511719 L 32.292969 -12.511719 C 32.402344 -13.277344 32.457031 -14.042969 32.457031 -14.808594 Z M 17.15625 -23.496094 C 20.761719 -23.496094 23.332031 -21.527344 24.480469 -17.921875 L 10.164062 -17.921875 C 11.09375 -21.417969 13.605469 -23.496094 17.15625 -23.496094 Z M 17.15625 -23.496094 "/></g></g></g><g fill="#00ffff" fill-opacity="1"><g transform="translate(376.83202, 113.971859)"><g><path d="M 18.25 -7.101562 C 15.300781 -7.101562 13.660156 -8.742188 13.660156 -11.582031 L 13.660156 -23.058594 L 21.691406 -23.058594 L 21.691406 -29.503906 L 13.550781 -29.503906 L 13.550781 -37.15625 L 12.019531 -37.15625 L 0.382812 -24.804688 L 0.382812 -23.058594 L 5.683594 -23.058594 L 5.683594 -10.492188 C 5.683594 -3.988281 9.671875 0 16.171875 0 L 21.855469 0 L 21.855469 -7.101562 Z M 18.25 -7.101562 "/></g></g></g><g fill="#00ffff" fill-opacity="1"><g transform="translate(400.326215, 113.971859)"><g><path d="M 32.457031 -14.808594 C 32.457031 -23.332031 26.226562 -30.324219 17.15625 -30.324219 C 8.414062 -30.324219 1.859375 -23.605469 1.859375 -14.753906 C 1.859375 -5.902344 8.46875 0.875 17.15625 0.875 C 24.042969 0.875 29.667969 -3.222656 31.800781 -9.671875 L 23.441406 -9.671875 C 22.238281 -7.539062 19.945312 -6.230469 17.15625 -6.230469 C 13.277344 -6.230469 10.65625 -8.46875 9.945312 -12.511719 L 32.292969 -12.511719 C 32.402344 -13.277344 32.457031 -14.042969 32.457031 -14.808594 Z M 17.15625 -23.496094 C 20.761719 -23.496094 23.332031 -21.527344 24.480469 -17.921875 L 10.164062 -17.921875 C 11.09375 -21.417969 13.605469 -23.496094 17.15625 -23.496094 Z M 17.15625 -23.496094 "/></g></g></g><g fill="#00ffff" fill-opacity="1"><g transform="translate(434.638657, 113.971859)"><g><path d="M 17.539062 0.875 C 25.242188 0.875 31.308594 -4.152344 32.675781 -11.582031 L 24.640625 -11.582031 C 23.277344 -8.414062 20.761719 -6.667969 17.539062 -6.667969 C 13.277344 -6.667969 9.945312 -10.21875 9.945312 -14.753906 C 9.945312 -19.34375 13.222656 -22.839844 17.539062 -22.839844 C 20.707031 -22.839844 23.386719 -21.089844 24.640625 -18.195312 L 32.566406 -18.195312 C 31.144531 -25.460938 25.242188 -30.324219 17.59375 -30.324219 C 8.632812 -30.324219 1.859375 -23.660156 1.859375 -14.808594 C 1.859375 -5.957031 8.632812 0.875 17.539062 0.875 Z M 17.539062 0.875 "/></g></g></g><g fill="#00ffff" fill-opacity="1"><g transform="translate(468.787182, 113.971859)"><g><path d="M 20.707031 -30.160156 C 17.15625 -30.160156 14.042969 -28.851562 11.800781 -26.71875 L 11.800781 -40.105469 L 3.824219 -40.105469 L 3.824219 0 L 11.800781 0 L 11.800781 -15.464844 C 11.800781 -20.269531 14.425781 -23.167969 18.414062 -23.167969 C 21.964844 -23.167969 23.550781 -20.980469 23.550781 -16.554688 L 23.550781 0 L 31.527344 0 L 31.527344 -17.921875 C 31.527344 -25.40625 27.375 -30.160156 20.707031 -30.160156 Z M 20.707031 -30.160156 "/></g></g></g><g fill="#00ffff" fill-opacity="1"><g transform="translate(503.809917, 113.971859)"><g><path d="M 1.09375 4.480469 L 9.507812 4.480469 L 26.117188 -41.582031 L 17.757812 -41.582031 Z M 1.09375 4.480469 "/></g></g></g><g fill="#00ffff" fill-opacity="1"><g transform="translate(531.183379, 113.971859)"><g><path d="M 17.539062 0.875 C 25.242188 0.875 31.308594 -4.152344 32.675781 -11.582031 L 24.640625 -11.582031 C 23.277344 -8.414062 20.761719 -6.667969 17.539062 -6.667969 C 13.277344 -6.667969 9.945312 -10.21875 9.945312 -14.753906 C 9.945312 -19.34375 13.222656 -22.839844 17.539062 -22.839844 C 20.707031 -22.839844 23.386719 -21.089844 24.640625 -18.195312 L 32.566406 -18.195312 C 31.144531 -25.460938 25.242188 -30.324219 17.59375 -30.324219 C 8.632812 -30.324219 1.859375 -23.660156 1.859375 -14.808594 C 1.859375 -5.957031 8.632812 0.875 17.539062 0.875 Z M 17.539062 0.875 "/></g></g></g><g fill="#00ffff" fill-opacity="1"><g transform="translate(565.331904, 113.971859)"><g><path d="M 17.8125 0.875 C 26.9375 0.875 33.765625 -5.847656 33.765625 -14.753906 C 33.765625 -23.660156 26.9375 -30.324219 17.8125 -30.324219 C 8.6875 -30.324219 1.859375 -23.660156 1.859375 -14.753906 C 1.859375 -5.847656 8.6875 0.875 17.8125 0.875 Z M 17.8125 -6.667969 C 13.222656 -6.667969 9.945312 -9.945312 9.945312 -14.753906 C 9.945312 -19.507812 13.222656 -22.839844 17.8125 -22.839844 C 22.402344 -22.839844 25.679688 -19.507812 25.679688 -14.753906 C 25.679688 -9.945312 22.402344 -6.667969 17.8125 -6.667969 Z M 17.8125 -6.667969 "/></g></g></g><g fill="#00ffff" fill-opacity="1"><g transform="translate(601.010294, 113.971859)"><g><path d="M 25.460938 -40.105469 L 25.460938 -27.867188 C 23.167969 -29.449219 20.433594 -30.324219 17.375 -30.324219 C 8.414062 -30.324219 1.859375 -23.660156 1.859375 -14.699219 C 1.859375 -5.792969 8.414062 0.929688 17.375 0.929688 C 20.980469 0.929688 24.152344 -0.328125 26.609375 -2.402344 L 27.539062 0.0546875 L 33.441406 0.0546875 L 33.441406 -40.105469 Z M 18.03125 -6.613281 C 13.386719 -6.613281 10 -10.109375 10 -14.699219 C 10 -19.34375 13.386719 -22.785156 18.03125 -22.785156 C 22.675781 -22.785156 26.0625 -19.34375 26.0625 -14.699219 C 26.0625 -10.109375 22.675781 -6.613281 18.03125 -6.613281 Z M 18.03125 -6.613281 "/></g></g></g><g fill="#00ffff" fill-opacity="1"><g transform="translate(638.32781, 113.971859)"><g><path d="M 32.457031 -14.808594 C 32.457031 -23.332031 26.226562 -30.324219 17.15625 -30.324219 C 8.414062 -30.324219 1.859375 -23.605469 1.859375 -14.753906 C 1.859375 -5.902344 8.46875 0.875 17.15625 0.875 C 24.042969 0.875 29.667969 -3.222656 31.800781 -9.671875 L 23.441406 -9.671875 C 22.238281 -7.539062 19.945312 -6.230469 17.15625 -6.230469 C 13.277344 -6.230469 10.65625 -8.46875 9.945312 -12.511719 L 32.292969 -12.511719 C 32.402344 -13.277344 32.457031 -14.042969 32.457031 -14.808594 Z M 17.15625 -23.496094 C 20.761719 -23.496094 23.332031 -21.527344 24.480469 -17.921875 L 10.164062 -17.921875 C 11.09375 -21.417969 13.605469 -23.496094 17.15625 -23.496094 Z M 17.15625 -23.496094 "/></g></g></g><g fill="#38b6ff" fill-opacity="1"><g transform="translate(377.856588, 113.971859)"><g><path d="M 18.25 -7.101562 C 15.300781 -7.101562 13.660156 -8.742188 13.660156 -11.582031 L 13.660156 -23.058594 L 21.691406 -23.058594 L 21.691406 -29.503906 L 13.550781 -29.503906 L 13.550781 -37.15625 L 12.019531 -37.15625 L 0.382812 -24.804688 L 0.382812 -23.058594 L 5.683594 -23.058594 L 5.683594 -10.492188 C 5.683594 -3.988281 9.671875 0 16.171875 0 L 21.855469 0 L 21.855469 -7.101562 Z M 18.25 -7.101562 "/></g></g></g><g fill="#38b6ff" fill-opacity="1"><g transform="translate(401.350783, 113.971859)"><g><path d="M 32.457031 -14.808594 C 32.457031 -23.332031 26.226562 -30.324219 17.15625 -30.324219 C 8.414062 -30.324219 1.859375 -23.605469 1.859375 -14.753906 C 1.859375 -5.902344 8.46875 0.875 17.15625 0.875 C 24.042969 0.875 29.667969 -3.222656 31.800781 -9.671875 L 23.441406 -9.671875 C 22.238281 -7.539062 19.945312 -6.230469 17.15625 -6.230469 C 13.277344 -6.230469 10.65625 -8.46875 9.945312 -12.511719 L 32.292969 -12.511719 C 32.402344 -13.277344 32.457031 -14.042969 32.457031 -14.808594 Z M 17.15625 -23.496094 C 20.761719 -23.496094 23.332031 -21.527344 24.480469 -17.921875 L 10.164062 -17.921875 C 11.09375 -21.417969 13.605469 -23.496094 17.15625 -23.496094 Z M 17.15625 -23.496094 "/></g></g></g><g fill="#38b6ff" fill-opacity="1"><g transform="translate(435.663225, 113.971859)"><g><path d="M 17.539062 0.875 C 25.242188 0.875 31.308594 -4.152344 32.675781 -11.582031 L 24.640625 -11.582031 C 23.277344 -8.414062 20.761719 -6.667969 17.539062 -6.667969 C 13.277344 -6.667969 9.945312 -10.21875 9.945312 -14.753906 C 9.945312 -19.34375 13.222656 -22.839844 17.539062 -22.839844 C 20.707031 -22.839844 23.386719 -21.089844 24.640625 -18.195312 L 32.566406 -18.195312 C 31.144531 -25.460938 25.242188 -30.324219 17.59375 -30.324219 C 8.632812 -30.324219 1.859375 -23.660156 1.859375 -14.808594 C 1.859375 -5.957031 8.632812 0.875 17.539062 0.875 Z M 17.539062 0.875 "/></g></g></g><g fill="#38b6ff" fill-opacity="1"><g transform="translate(469.81175, 113.971859)"><g><path d="M 20.707031 -30.160156 C 17.15625 -30.160156 14.042969 -28.851562 11.800781 -26.71875 L 11.800781 -40.105469 L 3.824219 -40.105469 L 3.824219 0 L 11.800781 0 L 11.800781 -15.464844 C 11.800781 -20.269531 14.425781 -23.167969 18.414062 -23.167969 C 21.964844 -23.167969 23.550781 -20.980469 23.550781 -16.554688 L 23.550781 0 L 31.527344 0 L 31.527344 -17.921875 C 31.527344 -25.40625 27.375 -30.160156 20.707031 -30.160156 Z M 20.707031 -30.160156 "/></g></g></g><g fill="#38b6ff" fill-opacity="1"><g transform="translate(504.834485, 113.971859)"><g><path d="M 1.09375 4.480469 L 9.507812 4.480469 L 26.117188 -41.582031 L 17.757812 -41.582031 Z M 1.09375 4.480469 "/></g></g></g><g fill="#38b6ff" fill-opacity="1"><g transform="translate(532.207947, 113.971859)"><g><path d="M 17.539062 0.875 C 25.242188 0.875 31.308594 -4.152344 32.675781 -11.582031 L 24.640625 -11.582031 C 23.277344 -8.414062 20.761719 -6.667969 17.539062 -6.667969 C 13.277344 -6.667969 9.945312 -10.21875 9.945312 -14.753906 C 9.945312 -19.34375 13.222656 -22.839844 17.539062 -22.839844 C 20.707031 -22.839844 23.386719 -21.089844 24.640625 -18.195312 L 32.566406 -18.195312 C 31.144531 -25.460938 25.242188 -30.324219 17.59375 -30.324219 C 8.632812 -30.324219 1.859375 -23.660156 1.859375 -14.808594 C 1.859375 -5.957031 8.632812 0.875 17.539062 0.875 Z M 17.539062 0.875 "/></g></g></g><g fill="#38b6ff" fill-opacity="1"><g transform="translate(566.356472, 113.971859)"><g><path d="M 17.8125 0.875 C 26.9375 0.875 33.765625 -5.847656 33.765625 -14.753906 C 33.765625 -23.660156 26.9375 -30.324219 17.8125 -30.324219 C 8.6875 -30.324219 1.859375 -23.660156 1.859375 -14.753906 C 1.859375 -5.847656 8.6875 0.875 17.8125 0.875 Z M 17.8125 -6.667969 C 13.222656 -6.667969 9.945312 -9.945312 9.945312 -14.753906 C 9.945312 -19.507812 13.222656 -22.839844 17.8125 -22.839844 C 22.402344 -22.839844 25.679688 -19.507812 25.679688 -14.753906 C 25.679688 -9.945312 22.402344 -6.667969 17.8125 -6.667969 Z M 17.8125 -6.667969 "/></g></g></g><g fill="#38b6ff" fill-opacity="1"><g transform="translate(602.034862, 113.971859)"><g><path d="M 25.460938 -40.105469 L 25.460938 -27.867188 C 23.167969 -29.449219 20.433594 -30.324219 17.375 -30.324219 C 8.414062 -30.324219 1.859375 -23.660156 1.859375 -14.699219 C 1.859375 -5.792969 8.414062 0.929688 17.375 0.929688 C 20.980469 0.929688 24.152344 -0.328125 26.609375 -2.402344 L 27.539062 0.0546875 L 33.441406 0.0546875 L 33.441406 -40.105469 Z M 18.03125 -6.613281 C 13.386719 -6.613281 10 -10.109375 10 -14.699219 C 10 -19.34375 13.386719 -22.785156 18.03125 -22.785156 C 22.675781 -22.785156 26.0625 -19.34375 26.0625 -14.699219 C 26.0625 -10.109375 22.675781 -6.613281 18.03125 -6.613281 Z M 18.03125 -6.613281 "/></g></g></g><g fill="#38b6ff" fill-opacity="1"><g transform="translate(639.352378, 113.971859)"><g><path d="M 32.457031 -14.808594 C 32.457031 -23.332031 26.226562 -30.324219 17.15625 -30.324219 C 8.414062 -30.324219 1.859375 -23.605469 1.859375 -14.753906 C 1.859375 -5.902344 8.46875 0.875 17.15625 0.875 C 24.042969 0.875 29.667969 -3.222656 31.800781 -9.671875 L 23.441406 -9.671875 C 22.238281 -7.539062 19.945312 -6.230469 17.15625 -6.230469 C 13.277344 -6.230469 10.65625 -8.46875 9.945312 -12.511719 L 32.292969 -12.511719 C 32.402344 -13.277344 32.457031 -14.042969 32.457031 -14.808594 Z M 17.15625 -23.496094 C 20.761719 -23.496094 23.332031 -21.527344 24.480469 -17.921875 L 10.164062 -17.921875 C 11.09375 -21.417969 13.605469 -23.496094 17.15625 -23.496094 Z M 17.15625 -23.496094 "/></g></g></g><g fill="#ff00ff" fill-opacity="1"><g transform="translate(378.881153, 170.322532)"><g><path d="M 27.375 -20.160156 C 30.050781 -22.019531 31.691406 -25.078125 31.691406 -28.359375 C 31.691406 -33.984375 26.773438 -38.191406 20.160156 -38.191406 L 4.371094 -38.191406 L 4.371094 0.0546875 L 20.597656 0.0546875 C 27.265625 0.0546875 32.675781 -4.863281 32.675781 -10.984375 C 32.675781 -15.082031 30.707031 -18.359375 27.375 -20.160156 Z M 23.660156 -27.101562 C 23.660156 -24.695312 21.964844 -23.003906 19.398438 -23.003906 L 12.457031 -23.003906 L 12.457031 -31.144531 L 19.398438 -31.144531 C 21.964844 -31.144531 23.660156 -29.503906 23.660156 -27.101562 Z M 19.835938 -7.539062 L 12.457031 -7.539062 L 12.457031 -16.117188 L 19.835938 -16.117188 C 22.566406 -16.117188 24.371094 -14.316406 24.371094 -11.855469 C 24.371094 -9.34375 22.566406 -7.539062 19.835938 -7.539062 Z M 19.835938 -7.539062 "/></g></g></g><g fill="#ff00ff" fill-opacity="1"><g transform="translate(413.958528, 170.322532)"><g><path d="M 17.8125 0.875 C 26.9375 0.875 33.765625 -5.847656 33.765625 -14.753906 C 33.765625 -23.660156 26.9375 -30.324219 17.8125 -30.324219 C 8.6875 -30.324219 1.859375 -23.660156 1.859375 -14.753906 C 1.859375 -5.847656 8.6875 0.875 17.8125 0.875 Z M 17.8125 -6.667969 C 13.222656 -6.667969 9.945312 -9.945312 9.945312 -14.753906 C 9.945312 -19.507812 13.222656 -22.839844 17.8125 -22.839844 C 22.402344 -22.839844 25.679688 -19.507812 25.679688 -14.753906 C 25.679688 -9.945312 22.402344 -6.667969 17.8125 -6.667969 Z M 17.8125 -6.667969 "/></g></g></g><g fill="#ff00ff" fill-opacity="1"><g transform="translate(449.636918, 170.322532)"><g><path d="M 17.8125 0.875 C 26.9375 0.875 33.765625 -5.847656 33.765625 -14.753906 C 33.765625 -23.660156 26.9375 -30.324219 17.8125 -30.324219 C 8.6875 -30.324219 1.859375 -23.660156 1.859375 -14.753906 C 1.859375 -5.847656 8.6875 0.875 17.8125 0.875 Z M 17.8125 -6.667969 C 13.222656 -6.667969 9.945312 -9.945312 9.945312 -14.753906 C 9.945312 -19.507812 13.222656 -22.839844 17.8125 -22.839844 C 22.402344 -22.839844 25.679688 -19.507812 25.679688 -14.753906 C 25.679688 -9.945312 22.402344 -6.667969 17.8125 -6.667969 Z M 17.8125 -6.667969 "/></g></g></g><g fill="#ff00ff" fill-opacity="1"><g transform="translate(485.315307, 170.322532)"><g><path d="M 30.871094 0 L 19.835938 -15.410156 L 29.832031 -29.503906 L 20.652344 -29.503906 L 11.800781 -16.390625 L 11.800781 -40.105469 L 3.824219 -40.105469 L 3.824219 0 L 11.800781 0 L 11.800781 -14.097656 L 21.199219 0 Z M 30.871094 0 "/></g></g></g><g fill="#ff00ff" fill-opacity="1"><g transform="translate(515.967023, 170.322532)"><g><path d="M 14.261719 0.875 C 21.746094 0.875 26.664062 -3.058594 26.664062 -9.070312 C 26.664062 -16.28125 20.488281 -17.265625 15.679688 -18.140625 C 12.621094 -18.6875 10.109375 -19.179688 10.109375 -21.144531 C 10.109375 -22.839844 11.582031 -23.933594 14.042969 -23.933594 C 16.828125 -23.933594 18.46875 -22.785156 18.523438 -20.433594 L 26.117188 -20.433594 C 26.0625 -26.335938 21.363281 -30.324219 14.261719 -30.324219 C 7.15625 -30.324219 2.402344 -26.445312 2.402344 -20.871094 C 2.402344 -13.933594 8.414062 -12.675781 13.113281 -11.855469 C 16.226562 -11.363281 18.796875 -10.765625 18.796875 -8.742188 C 18.796875 -6.773438 16.773438 -5.738281 14.589844 -5.738281 C 11.746094 -5.738281 9.726562 -7.046875 9.671875 -9.671875 L 1.914062 -9.671875 C 1.914062 -3.386719 6.882812 0.875 14.261719 0.875 Z M 14.261719 0.875 "/></g></g></g><g fill="#00ffff" fill-opacity="1"><g transform="translate(376.83202, 170.322532)"><g><path d="M 27.375 -20.160156 C 30.050781 -22.019531 31.691406 -25.078125 31.691406 -28.359375 C 31.691406 -33.984375 26.773438 -38.191406 20.160156 -38.191406 L 4.371094 -38.191406 L 4.371094 0.0546875 L 20.597656 0.0546875 C 27.265625 0.0546875 32.675781 -4.863281 32.675781 -10.984375 C 32.675781 -15.082031 30.707031 -18.359375 27.375 -20.160156 Z M 23.660156 -27.101562 C 23.660156 -24.695312 21.964844 -23.003906 19.398438 -23.003906 L 12.457031 -23.003906 L 12.457031 -31.144531 L 19.398438 -31.144531 C 21.964844 -31.144531 23.660156 -29.503906 23.660156 -27.101562 Z M 19.835938 -7.539062 L 12.457031 -7.539062 L 12.457031 -16.117188 L 19.835938 -16.117188 C 22.566406 -16.117188 24.371094 -14.316406 24.371094 -11.855469 C 24.371094 -9.34375 22.566406 -7.539062 19.835938 -7.539062 Z M 19.835938 -7.539062 "/></g></g></g><g fill="#00ffff" fill-opacity="1"><g transform="translate(411.909395, 170.322532)"><g><path d="M 17.8125 0.875 C 26.9375 0.875 33.765625 -5.847656 33.765625 -14.753906 C 33.765625 -23.660156 26.9375 -30.324219 17.8125 -30.324219 C 8.6875 -30.324219 1.859375 -23.660156 1.859375 -14.753906 C 1.859375 -5.847656 8.6875 0.875 17.8125 0.875 Z M 17.8125 -6.667969 C 13.222656 -6.667969 9.945312 -9.945312 9.945312 -14.753906 C 9.945312 -19.507812 13.222656 -22.839844 17.8125 -22.839844 C 22.402344 -22.839844 25.679688 -19.507812 25.679688 -14.753906 C 25.679688 -9.945312 22.402344 -6.667969 17.8125 -6.667969 Z M 17.8125 -6.667969 "/></g></g></g><g fill="#00ffff" fill-opacity="1"><g transform="translate(447.587784, 170.322532)"><g><path d="M 17.8125 0.875 C 26.9375 0.875 33.765625 -5.847656 33.765625 -14.753906 C 33.765625 -23.660156 26.9375 -30.324219 17.8125 -30.324219 C 8.6875 -30.324219 1.859375 -23.660156 1.859375 -14.753906 C 1.859375 -5.847656 8.6875 0.875 17.8125 0.875 Z M 17.8125 -6.667969 C 13.222656 -6.667969 9.945312 -9.945312 9.945312 -14.753906 C 9.945312 -19.507812 13.222656 -22.839844 17.8125 -22.839844 C 22.402344 -22.839844 25.679688 -19.507812 25.679688 -14.753906 C 25.679688 -9.945312 22.402344 -6.667969 17.8125 -6.667969 Z M 17.8125 -6.667969 "/></g></g></g><g fill="#00ffff" fill-opacity="1"><g transform="translate(483.266174, 170.322532)"><g><path d="M 30.871094 0 L 19.835938 -15.410156 L 29.832031 -29.503906 L 20.652344 -29.503906 L 11.800781 -16.390625 L 11.800781 -40.105469 L 3.824219 -40.105469 L 3.824219 0 L 11.800781 0 L 11.800781 -14.097656 L 21.199219 0 Z M 30.871094 0 "/></g></g></g><g fill="#00ffff" fill-opacity="1"><g transform="translate(513.91789, 170.322532)"><g><path d="M 14.261719 0.875 C 21.746094 0.875 26.664062 -3.058594 26.664062 -9.070312 C 26.664062 -16.28125 20.488281 -17.265625 15.679688 -18.140625 C 12.621094 -18.6875 10.109375 -19.179688 10.109375 -21.144531 C 10.109375 -22.839844 11.582031 -23.933594 14.042969 -23.933594 C 16.828125 -23.933594 18.46875 -22.785156 18.523438 -20.433594 L 26.117188 -20.433594 C 26.0625 -26.335938 21.363281 -30.324219 14.261719 -30.324219 C 7.15625 -30.324219 2.402344 -26.445312 2.402344 -20.871094 C 2.402344 -13.933594 8.414062 -12.675781 13.113281 -11.855469 C 16.226562 -11.363281 18.796875 -10.765625 18.796875 -8.742188 C 18.796875 -6.773438 16.773438 -5.738281 14.589844 -5.738281 C 11.746094 -5.738281 9.726562 -7.046875 9.671875 -9.671875 L 1.914062 -9.671875 C 1.914062 -3.386719 6.882812 0.875 14.261719 0.875 Z M 14.261719 0.875 "/></g></g></g><g fill="#38b6ff" fill-opacity="1"><g transform="translate(377.856588, 170.322532)"><g><path d="M 27.375 -20.160156 C 30.050781 -22.019531 31.691406 -25.078125 31.691406 -28.359375 C 31.691406 -33.984375 26.773438 -38.191406 20.160156 -38.191406 L 4.371094 -38.191406 L 4.371094 0.0546875 L 20.597656 0.0546875 C 27.265625 0.0546875 32.675781 -4.863281 32.675781 -10.984375 C 32.675781 -15.082031 30.707031 -18.359375 27.375 -20.160156 Z M 23.660156 -27.101562 C 23.660156 -24.695312 21.964844 -23.003906 19.398438 -23.003906 L 12.457031 -23.003906 L 12.457031 -31.144531 L 19.398438 -31.144531 C 21.964844 -31.144531 23.660156 -29.503906 23.660156 -27.101562 Z M 19.835938 -7.539062 L 12.457031 -7.539062 L 12.457031 -16.117188 L 19.835938 -16.117188 C 22.566406 -16.117188 24.371094 -14.316406 24.371094 -11.855469 C 24.371094 -9.34375 22.566406 -7.539062 19.835938 -7.539062 Z M 19.835938 -7.539062 "/></g></g></g><g fill="#38b6ff" fill-opacity="1"><g transform="translate(412.933963, 170.322532)"><g><path d="M 17.8125 0.875 C 26.9375 0.875 33.765625 -5.847656 33.765625 -14.753906 C 33.765625 -23.660156 26.9375 -30.324219 17.8125 -30.324219 C 8.6875 -30.324219 1.859375 -23.660156 1.859375 -14.753906 C 1.859375 -5.847656 8.6875 0.875 17.8125 0.875 Z M 17.8125 -6.667969 C 13.222656 -6.667969 9.945312 -9.945312 9.945312 -14.753906 C 9.945312 -19.507812 13.222656 -22.839844 17.8125 -22.839844 C 22.402344 -22.839844 25.679688 -19.507812 25.679688 -14.753906 C 25.679688 -9.945312 22.402344 -6.667969 17.8125 -6.667969 Z M 17.8125 -6.667969 "/></g></g></g><g fill="#38b6ff" fill-opacity="1"><g transform="translate(448.612352, 170.322532)"><g><path d="M 17.8125 0.875 C 26.9375 0.875 33.765625 -5.847656 33.765625 -14.753906 C 33.765625 -23.660156 26.9375 -30.324219 17.8125 -30.324219 C 8.6875 -30.324219 1.859375 -23.660156 1.859375 -14.753906 C 1.859375 -5.847656 8.6875 0.875 17.8125 0.875 Z M 17.8125 -6.667969 C 13.222656 -6.667969 9.945312 -9.945312 9.945312 -14.753906 C 9.945312 -19.507812 13.222656 -22.839844 17.8125 -22.839844 C 22.402344 -22.839844 25.679688 -19.507812 25.679688 -14.753906 C 25.679688 -9.945312 22.402344 -6.667969 17.8125 -6.667969 Z M 17.8125 -6.667969 "/></g></g></g><g fill="#38b6ff" fill-opacity="1"><g transform="translate(484.290742, 170.322532)"><g><path d="M 30.871094 0 L 19.835938 -15.410156 L 29.832031 -29.503906 L 20.652344 -29.503906 L 11.800781 -16.390625 L 11.800781 -40.105469 L 3.824219 -40.105469 L 3.824219 0 L 11.800781 0 L 11.800781 -14.097656 L 21.199219 0 Z M 30.871094 0 "/></g></g></g><g fill="#38b6ff" fill-opacity="1"><g transform="translate(514.942457, 170.322532)"><g><path d="M 14.261719 0.875 C 21.746094 0.875 26.664062 -3.058594 26.664062 -9.070312 C 26.664062 -16.28125 20.488281 -17.265625 15.679688 -18.140625 C 12.621094 -18.6875 10.109375 -19.179688 10.109375 -21.144531 C 10.109375 -22.839844 11.582031 -23.933594 14.042969 -23.933594 C 16.828125 -23.933594 18.46875 -22.785156 18.523438 -20.433594 L 26.117188 -20.433594 C 26.0625 -26.335938 21.363281 -30.324219 14.261719 -30.324219 C 7.15625 -30.324219 2.402344 -26.445312 2.402344 -20.871094 C 2.402344 -13.933594 8.414062 -12.675781 13.113281 -11.855469 C 16.226562 -11.363281 18.796875 -10.765625 18.796875 -8.742188 C 18.796875 -6.773438 16.773438 -5.738281 14.589844 -5.738281 C 11.746094 -5.738281 9.726562 -7.046875 9.671875 -9.671875 L 1.914062 -9.671875 C 1.914062 -3.386719 6.882812 0.875 14.261719 0.875 Z M 14.261719 0.875 "/></g></g></g></svg>